<svg width="11" height="11" viewBox="0 0 11 11" fill="none" xmlns="http://www.w3.org/2000/svg">
<path d="M5.07816 3.56844L5.49999 4.23131L5.92182 3.56844C6.31083 2.95715 6.99923 2.5625 7.79166 2.5625C9.02802 2.5625 10.0417 3.57614 10.0417 4.8125C10.0417 5.34956 9.79283 5.93344 9.3507 6.53635C8.91237 7.13407 8.31704 7.70536 7.70421 8.20677C7.09384 8.70616 6.48097 9.12424 6.01932 9.41801C5.8093 9.55166 5.63157 9.65895 5.50092 9.73583C5.37016 9.65835 5.19218 9.55018 4.98181 9.41551C4.52 9.11989 3.90691 8.69958 3.29631 8.19861C2.68323 7.6956 2.0876 7.12338 1.64906 6.52636C1.20641 5.92376 0.958328 5.34301 0.958328 4.8125C0.958328 3.57614 1.97197 2.5625 3.20833 2.5625C4.00076 2.5625 4.68916 2.95715 5.07816 3.56844Z" fill="white" stroke="#FF9401"/>
</svg>
