<svg width="110" height="30" viewBox="0 0 110 30" fill="none" xmlns="http://www.w3.org/2000/svg">
<path d="M37.3379 6.79102C36.1025 6.79102 34.9639 7.26367 34.3193 7.89746C33.2988 8.88574 32.9336 10.0459 32.9336 12.6348H31.4404V13.0752H32.9336V21.959C32.9336 23.1836 32.5576 23.5381 31.5264 23.5381V24C32.085 23.9785 33.2666 23.9141 34.3838 23.9141C35.9092 23.9141 37.4131 23.9785 38.1758 24V23.5381C36.876 23.5381 36.1025 23.1621 36.1025 21.7334V13.0752H38.4551V12.6348H36.1025V10.6367C36.1025 8.93945 36.21 8.20898 36.5107 7.76855C36.7471 7.41406 37.1338 7.18848 37.7031 7.18848C38.1328 7.18848 38.4014 7.32812 38.498 7.5C37.6494 7.74707 37.209 8.38086 37.209 9.13281C37.209 10.1104 37.8965 10.7012 38.8848 10.7012C39.8086 10.7012 40.4424 9.98145 40.4424 9.16504C40.4424 8.43457 40.1094 7.86523 39.6904 7.52148C39.0996 7.08105 38.3584 6.79102 37.3379 6.79102ZM41.6992 20.9062C40.5498 20.9062 39.8301 21.5508 39.8301 22.6143C39.8301 23.667 40.5498 24.3115 41.6992 24.3115C42.8486 24.3115 43.5791 23.667 43.5791 22.6143C43.5791 21.5508 42.8486 20.9062 41.6992 20.9062ZM53.1074 12.3125C51.5498 12.3125 50.3037 13.0537 49.6914 14.4502V12.3877C48.7783 12.6133 47.7041 12.6992 46.4795 12.6992C46.0391 12.6992 45.5771 12.6777 45.1152 12.6348V13.0967C46.1787 13.0967 46.5225 13.709 46.5225 15.0303V26.0195C46.5225 27.1904 46.168 27.5234 45.2012 27.5234V27.9854C45.749 27.9639 46.8984 27.8887 47.9727 27.8887C49.4658 27.8887 50.9268 27.9639 51.668 27.9854V27.5234C50.4326 27.5234 49.6914 27.1689 49.6914 25.8047V23.6025C50.2393 24.0645 51.0449 24.3115 51.9473 24.3115C55.0303 24.3115 57.0391 22.0771 57.0391 17.8018C57.0391 14.1387 55.3418 12.3125 53.1074 12.3125ZM51.0879 23.71C50.4971 23.71 50.0137 23.4951 49.6914 23.1191V15.2021C49.96 13.9561 50.8516 13.2578 51.8184 13.2578C52.9678 13.2578 53.7197 14.4932 53.7197 18.2314C53.7197 21.6152 53.043 23.71 51.0879 23.71ZM63.6562 12.3125C62.1738 12.3125 61.0996 12.624 60.3154 13.0645C59.5957 13.4834 59.0801 14.0957 59.0801 14.9014C59.0801 15.8682 59.6816 16.5986 60.6377 16.5986C61.7227 16.5986 62.4316 15.9326 62.4316 15.0195C62.4316 14.1279 61.916 13.5586 61.1318 13.29C61.5293 12.9033 62.1738 12.7529 62.7002 12.7529C64 12.7529 64.4941 13.5693 64.4941 14.7188V16.4375C64.4941 17.3828 63.2266 17.8018 61.6045 18.4141C59.5635 19.166 58.5107 20.0576 58.5107 21.6475C58.5107 23.248 59.6494 24.1504 61.293 24.1504C62.5283 24.1504 63.7852 23.6025 64.5371 22.3672C64.5479 23.3125 65.042 24.1504 66.6533 24.1504C67.7705 24.1504 68.501 23.8818 69.167 23.3447L68.9414 22.9688C68.6943 23.1621 68.4473 23.3447 68.1357 23.3447C67.7812 23.3447 67.6631 23.0762 67.6631 22.3672V16.3838C67.6631 14.8477 67.5234 13.9668 66.8789 13.3008C66.1699 12.5703 65.0742 12.3125 63.6562 12.3125ZM64.4941 21.8516C64.0322 22.5068 63.5488 22.7432 63.0117 22.7432C62.2275 22.7432 61.6367 22.249 61.6367 21.0352C61.6367 19.7139 62.3564 18.9941 63.1299 18.4248C63.8711 17.9629 64.29 17.6729 64.4941 17.3398V21.8516ZM74.2695 6.78027C73.3564 6.99512 72.2822 7.08105 71.0576 7.08105C70.6172 7.08105 70.1553 7.05957 69.6934 7.0166V7.47852C70.7568 7.47852 71.1006 8.10156 71.1006 9.42285V21.959C71.1006 23.1836 70.7246 23.5381 69.6934 23.5381V24C70.2842 23.9785 71.5947 23.9141 72.7441 23.9141C73.8828 23.9141 75.1182 23.9785 75.6768 24V23.5381C74.6562 23.5381 74.2695 23.1836 74.2695 21.959V6.78027ZM81.8965 12.3125C80.4141 12.3125 79.3398 12.624 78.5557 13.0645C77.8359 13.4834 77.3203 14.0957 77.3203 14.9014C77.3203 15.8682 77.9219 16.5986 78.8779 16.5986C79.9629 16.5986 80.6719 15.9326 80.6719 15.0195C80.6719 14.1279 80.1562 13.5586 79.3721 13.29C79.7695 12.9033 80.4141 12.7529 80.9404 12.7529C82.2402 12.7529 82.7344 13.5693 82.7344 14.7188V16.4375C82.7344 17.3828 81.4668 17.8018 79.8447 18.4141C77.8037 19.166 76.751 20.0576 76.751 21.6475C76.751 23.248 77.8896 24.1504 79.5332 24.1504C80.7686 24.1504 82.0254 23.6025 82.7773 22.3672C82.7881 23.3125 83.2822 24.1504 84.8936 24.1504C86.0107 24.1504 86.7412 23.8818 87.4072 23.3447L87.1816 22.9688C86.9346 23.1621 86.6875 23.3447 86.376 23.3447C86.0215 23.3447 85.9033 23.0762 85.9033 22.3672V16.3838C85.9033 14.8477 85.7637 13.9668 85.1191 13.3008C84.4102 12.5703 83.3145 12.3125 81.8965 12.3125ZM82.7344 21.8516C82.2725 22.5068 81.7891 22.7432 81.252 22.7432C80.4678 22.7432 79.877 22.249 79.877 21.0352C79.877 19.7139 80.5967 18.9941 81.3701 18.4248C82.1113 17.9629 82.5303 17.6729 82.7344 17.3398V21.8516ZM93.7451 12.3125C90.6299 12.3125 88.3096 14.3965 88.3096 18.3711C88.3096 22.4961 90.5654 24.3115 93.4336 24.3115C95.9473 24.3115 97.3008 22.4854 97.8057 20.8418L97.4189 20.7021C96.5273 22.1738 95.3564 22.4961 94.54 22.4961C93.0898 22.4961 91.6289 21.4756 91.6289 18.0596C91.6289 15.0732 92.585 12.8496 94.4111 12.8496C94.9912 12.8496 95.5068 13.0752 95.7324 13.376C94.9482 13.5908 94.2822 14.2568 94.2822 15.1807C94.2822 16.1689 94.9375 16.8135 95.9795 16.8135C96.9893 16.8135 97.7197 16.083 97.7197 15.041C97.7197 14.1709 97.2471 13.4404 96.5059 12.9893C95.8721 12.5918 94.8838 12.3125 93.7451 12.3125ZM105.422 22.4961C104.025 22.4961 102.554 21.3037 102.554 18.2422C102.554 17.8877 102.564 17.5225 102.597 17.2002H108.752C108.752 13.752 107.184 12.3125 104.616 12.3125C101.49 12.3125 99.2344 14.3428 99.2344 18.4248C99.2344 22.4424 101.34 24.3115 104.305 24.3115C106.743 24.3115 108.183 22.5391 108.709 20.8848L108.312 20.7344C107.42 22.1953 106.303 22.4961 105.422 22.4961ZM104.487 12.7852C105.562 12.7852 106.023 14.6328 105.98 16.7812H102.532C102.715 13.9346 103.499 12.7852 104.487 12.7852Z" fill="#2E2E2E"/>
<g clip-path="url(#clip0_1_277)">
<path d="M17.7022 12.426L17.4347 11.5456C17.0949 10.5455 16.0087 10.0102 15.0086 10.35C14.446 10.5411 14.0042 10.983 13.813 11.5456L13.5455 12.426C13.3204 13.1685 13.2732 13.9535 13.4076 14.7176C13.5302 15.361 13.9387 15.9137 14.5176 16.2197L14.218 22.9168C14.1779 23.2906 14.2992 23.6638 14.5514 23.9426C15.0937 24.5359 16.0143 24.5771 16.6076 24.0348C16.6397 24.0055 16.6704 23.9747 16.6997 23.9426C16.9463 23.6717 17.0673 23.3095 17.033 22.9447L16.7318 16.2189C17.31 15.9127 17.7177 15.3604 17.8401 14.7176C17.9746 13.9535 17.9273 13.1685 17.7022 12.426ZM17.0193 14.5726C16.9291 15.0348 16.5997 15.4141 16.1547 15.5681C15.9858 15.6316 15.877 15.7966 15.8851 15.9768L16.2018 23.0106C16.2164 23.1485 16.1709 23.2861 16.0768 23.3881C15.8259 23.6365 15.4218 23.6365 15.171 23.3881C15.0722 23.2779 15.0274 23.1295 15.0485 22.9831L15.3626 15.9768C15.3707 15.7966 15.2619 15.6316 15.093 15.5681C14.648 15.4141 14.3187 15.0348 14.2285 14.5726C14.117 13.9383 14.1563 13.2866 14.343 12.6701L14.6105 11.7893C14.8175 11.2297 15.439 10.9438 15.9987 11.1508C16.2946 11.2602 16.5278 11.4935 16.6372 11.7893L16.9047 12.6701C17.0913 13.2866 17.1305 13.9383 17.0193 14.5726Z" fill="#FF9401"/>
<path d="M11.2491 10.25C11.019 10.25 10.8325 10.4366 10.8325 10.6667V14.2442L9.70454 15.3721C9.6211 15.4552 9.57673 15.5698 9.58246 15.6875L9.94704 22.9792C9.95574 23.1364 9.89866 23.2902 9.78954 23.4038C9.56147 23.6339 9.19001 23.6355 8.95986 23.4074C8.95861 23.4062 8.95741 23.4049 8.95621 23.4038C8.84704 23.2902 8.79001 23.1364 8.79871 22.9792L9.16579 15.6875C9.17163 15.5699 9.12741 15.4553 9.04413 15.3721L7.91579 14.2442V10.6667C7.91579 10.4366 7.72923 10.25 7.49913 10.25C7.26902 10.25 7.08246 10.4366 7.08246 10.6667V14.4167C7.08246 14.5272 7.12642 14.6331 7.20454 14.7113L8.32371 15.8308L7.96829 22.9388C7.93048 23.7152 8.52923 24.3753 9.30564 24.4131C10.082 24.4509 10.7421 23.8521 10.78 23.0757C10.7822 23.0301 10.7822 22.9844 10.78 22.9388L10.4245 15.8309L11.5437 14.7113C11.6218 14.6332 11.6658 14.5272 11.6658 14.4167V10.6667C11.6658 10.4366 11.4792 10.25 11.2491 10.25Z" fill="#FF9401"/>
<path d="M8.74913 10.25C8.51902 10.25 8.33246 10.4366 8.33246 10.6667V14C8.33246 14.2301 8.51902 14.4167 8.74913 14.4167C8.97923 14.4167 9.16579 14.2301 9.16579 14V10.6667C9.16579 10.4366 8.97923 10.25 8.74913 10.25Z" fill="#FF9401"/>
<path d="M9.99919 10.25C9.76908 10.25 9.58252 10.4366 9.58252 10.6667V14C9.58252 14.2301 9.76908 14.4167 9.99919 14.4167C10.2293 14.4167 10.4159 14.2301 10.4159 14V10.6667C10.4159 10.4366 10.2293 10.25 9.99919 10.25Z" fill="#FF9401"/>
<path d="M12.5 4C5.59646 4 0 9.59646 0 16.5C0 23.4035 5.59646 29 12.5 29C19.4035 29 25 23.4035 25 16.5C24.9922 9.59969 19.4003 4.00781 12.5 4ZM12.5 28.1667C6.05667 28.1667 0.833333 22.9433 0.833333 16.5C0.833333 10.0567 6.05667 4.83333 12.5 4.83333C18.9433 4.83333 24.1667 10.0567 24.1667 16.5C24.1593 22.9403 18.9403 28.1593 12.5 28.1667Z" fill="#2E2E2E"/>
<path d="M13.8525 24.3213C13.8301 24.0923 13.6263 23.9247 13.3973 23.9471C13.3919 23.9476 13.3865 23.9482 13.3812 23.9489L13.3828 23.9485C12.7962 24.0167 12.2036 24.0167 11.617 23.9485C11.3883 23.9217 11.1813 24.0853 11.1545 24.3139C11.1277 24.5426 11.2913 24.7496 11.5199 24.7764C12.1705 24.8524 12.8277 24.8524 13.4782 24.7764C13.7073 24.7542 13.8748 24.5503 13.8525 24.3213Z" fill="#2E2E2E"/>
<path d="M18.8748 11.1308C18.7269 10.9545 18.4641 10.9315 18.2878 11.0794C18.2872 11.0799 18.2867 11.0804 18.286 11.0808C18.1102 11.2292 18.0878 11.492 18.236 11.6679C20.7483 14.6502 20.5561 19.0601 17.794 21.8125C17.6309 21.975 17.6305 22.2389 17.7929 22.4019C17.9554 22.5649 18.2193 22.5654 18.3823 22.4029C21.4519 19.345 21.666 14.4449 18.8748 11.1308Z" fill="#2E2E2E"/>
<path d="M14.4667 8.39973C12.8384 8.00947 11.1306 8.11437 9.56216 8.70098C9.34675 8.78197 9.23784 9.02228 9.31883 9.23765C9.37987 9.39999 9.53508 9.50744 9.70847 9.5076C9.75831 9.50734 9.80769 9.49822 9.85425 9.48056C11.2666 8.95239 12.8046 8.85807 14.2709 9.20973C14.4946 9.26379 14.7198 9.12635 14.7738 8.90265C14.8279 8.67895 14.6904 8.45379 14.4667 8.39973Z" fill="#2E2E2E"/>
<path d="M7.18623 21.7915C5.78159 20.3893 4.99435 18.4847 4.99914 16.4999C4.99503 14.9142 5.49732 13.3685 6.43289 12.0882C6.57118 11.9043 6.53414 11.6431 6.35019 11.5048C6.16623 11.3665 5.90503 11.4035 5.76675 11.5875C5.7643 11.5908 5.7619 11.594 5.75956 11.5974C3.35055 14.9093 3.70503 19.4807 6.59581 22.3815C6.75873 22.5446 7.023 22.5447 7.18602 22.3818C7.34904 22.2188 7.34914 21.9546 7.18623 21.7915Z" fill="#2E2E2E"/>
</g>
<defs>
<clipPath id="clip0_1_277">
<rect width="25" height="25" fill="white" transform="translate(0 4)"/>
</clipPath>
</defs>
</svg>
